<svg width="3840" height="272" viewBox="0 0 3840 272" fill="none" xmlns="http://www.w3.org/2000/svg">
    <g clip-path="url(#clip0_1077_17503)" filter="url(#filter0_i_1077_17503)">
        <rect width="1920" height="272" fill="#1450C8"/>
        <path opacity="0.5" d="M2097 37.8789L2084.64 35.5545L2074.75 47.7579L2062.38 30.3245L2050.02 28V72.1646L2032.71 79.138L2017.87 76.8136L2005.51 79.138L1988.2 75.0702L1978.31 94.247L1961 91.9225L1941.22 133.182L1928.85 84.368L1914.02 107.031L1901.65 97.1525L1886.82 43.6901L1881.87 44.8523C1878.58 42.1404 1871.49 36.9492 1869.51 37.8789C1867.53 38.8087 1862.09 49.8886 1859.62 55.3123L1852.2 28L1839.84 43.6901C1838.19 39.2349 1833.9 30.3245 1829.95 30.3245C1825.99 30.3245 1818.41 40.0097 1815.11 44.8523H1807.69L1780.49 108.775L1760.71 107.031L1753.29 120.978L1743.4 118.654L1731.04 128.533L1726.09 101.22L1708.78 147.709L1698.89 149.453L1689 131.438L1671.69 128.533L1644.49 89.0169L1629.65 95.9903V79.138L1614.82 84.368L1597.51 76.8136L1587.62 89.0169L1577.73 84.368L1565.36 123.303L1553 120.978L1533.22 136.087L1518.38 108.775L1501.07 133.182L1488.71 131.438L1463.98 141.898L1444.2 125.627L1426.89 133.182L1412.05 125.627L1399.69 137.831L1384.85 118.654L1377.44 152.939L1345.29 125.627L1325.51 136.087L1305.73 125.627L1288.42 136.087L1278.53 82.0436L1261.22 89.0169L1251.33 82.0436L1231.55 128.533L1211.76 123.303L1201.87 131.438L1184.56 55.3123L1172.2 128.533L1159.84 118.654L1147.47 128.533L1125.22 115.748L1115.33 120.978L1098.02 115.748L1090.6 131.438L1080.71 125.627L1068.35 147.709L1058.45 131.438L1041.15 151.196L1021.36 115.748L999.109 120.978L986.745 115.748L981.8 120.978L969.436 118.654L957.073 141.898L942.236 138.993L929.873 141.898L905.146 118.654L890.309 125.627L860.636 118.654L850.745 125.627L828.491 116.91L818.6 125.627L793.873 118.654L786.455 123.303L776.564 118.654L771.618 179.09L764.2 172.697L759.255 179.09L744.418 176.765L734.527 184.32L719.691 174.441L707.327 186.063L697.436 131.438L690.018 138.993L677.655 115.748L667.764 120.978L660.346 95.9903L645.509 101.22L633.146 63.4479L613.364 84.368L598.527 80.8814L591.109 120.978L576.273 110.518L558.964 128.533L549.073 116.91C545.776 120.785 538.687 128.533 536.709 128.533C534.731 128.533 525.994 125.046 521.873 123.303L511.982 133.182L494.673 128.533L487.255 140.155L460.055 112.261L447.691 123.303L430.382 118.654L422.964 125.627L408.127 123.303L398.236 152.939L388.346 147.709L380.927 149.453L371.036 128.533L363.618 131.438L346.309 120.978L336.418 126.789L324.055 114.005L309.218 118.654L294.382 110.518L277.073 118.654L272.127 112.261L264.709 120.978L247.4 118.654L239.982 125.627L217.727 120.978L210.309 128.533L197.946 123.303L183.109 129.695L170.745 108.775L158.382 145.385L150.964 125.627L141.073 129.695L131.182 108.775L116.346 118.654L101.509 245.918L91.6183 223.254L81.7273 227.322L74.3091 201.753L59.4728 227.322L44.6365 212.213L34.7456 227.322L22.3818 222.092C20.7334 226.741 16.4473 235.806 12.491 234.877C8.53467 233.947 2.6001 229.453 0.127441 227.322L-7.29102 259.283L-12.2363 255.797L-24.1843 267.59H-24.6816L-32.0181 230.809L-41.9089 240.107C-44.3816 237.007 -49.8218 230.809 -51.8 230.809C-53.7781 230.809 -59.2183 239.719 -61.6909 244.174L-79 238.363V267.59H-24.6816L-24.5999 268L-24.1843 267.59H2097V37.8789Z" fill="url(#paint0_linear_1077_17503)"/>
        <path d="M2097 37.8789L2084.64 35.5545L2074.75 47.7579L2062.38 30.3245L2050.02 28V72.1646L2032.71 79.138L2017.87 76.8136L2005.51 79.138L1988.2 75.0702L1978.31 94.247L1961 91.9225L1941.22 133.182L1928.85 84.368L1914.02 107.031L1901.65 97.1525L1886.82 43.6901L1881.87 44.8523C1878.58 42.1404 1871.49 36.9492 1869.51 37.8789C1867.53 38.8087 1862.09 49.8886 1859.62 55.3123L1852.2 28L1839.84 43.6901C1838.19 39.2349 1833.9 30.3245 1829.95 30.3245C1825.99 30.3245 1818.41 40.0097 1815.11 44.8523H1807.69L1780.49 108.775L1760.71 107.031L1753.29 120.978L1743.4 118.654L1731.04 128.533L1726.09 101.22L1708.78 147.709L1698.89 149.453L1689 131.438L1671.69 128.533L1644.49 89.017L1629.65 95.9903V79.138L1614.82 84.368L1597.51 76.8136L1587.62 89.017L1577.73 84.368L1565.36 123.303L1553 120.978L1533.22 136.087L1518.38 108.775L1501.07 133.182L1488.71 131.438L1463.98 141.898L1444.2 125.627L1426.89 133.182L1412.05 125.627L1399.69 137.831L1384.85 118.654L1377.44 152.939L1345.29 125.627L1325.51 136.087L1305.73 125.627L1288.42 136.087L1278.53 82.0436L1261.22 89.017L1251.33 82.0436L1231.55 128.533L1211.76 123.303L1201.87 131.438L1184.56 55.3123L1172.2 128.533L1159.84 118.654L1147.47 128.533L1125.22 115.748L1115.33 120.978L1098.02 115.748L1090.6 131.438L1080.71 125.627L1068.35 147.709L1058.45 131.438L1041.15 151.196L1021.36 115.748L999.109 120.978L986.745 115.748L981.8 120.978L969.436 118.654L957.073 141.898L942.236 138.993L929.873 141.898L905.145 118.654L890.309 125.627L860.636 118.654L850.745 125.627L828.491 116.91L818.6 125.627L793.873 118.654L786.455 123.303L776.564 118.654L771.618 179.09L764.2 172.697L759.255 179.09L744.418 176.765L734.527 184.32L719.691 174.441L707.327 186.063L697.436 131.438L690.018 138.993L677.655 115.748L667.764 120.978L660.345 95.9903L645.509 101.22L633.145 63.4479L613.364 84.368L598.527 80.8814L591.109 120.978L576.273 110.518L558.964 128.533L549.073 116.91C545.776 120.785 538.687 128.533 536.709 128.533C534.731 128.533 525.994 125.046 521.873 123.303L511.982 133.182L494.673 128.533L487.255 140.155L460.055 112.262L447.691 123.303L430.382 118.654L422.964 125.627L408.127 123.303L398.236 152.939L388.345 147.709L380.927 149.453L371.036 128.533L363.618 131.438L346.309 120.978L336.418 126.789L324.055 114.005L309.218 118.654L294.382 110.518L277.073 118.654L272.127 112.262L264.709 120.978L247.4 118.654L239.982 125.627L217.727 120.978L210.309 128.533L197.945 123.303L183.109 129.695L170.745 108.775L158.382 145.385L150.964 125.627L141.073 129.695L131.182 108.775L116.345 118.654L101.509 245.918L91.6182 223.254L81.7273 227.322L74.3091 201.753L59.4727 227.322L44.6362 212.213L34.7454 227.322L22.3818 222.092C20.7334 226.741 16.4473 235.806 12.491 234.877C8.5346 233.947 2.59992 229.453 0.127197 227.322L-7.29102 259.283L-12.2363 255.797L-24.6001 268L-32.0183 230.809L-41.9092 240.107C-44.3819 237.007 -49.8219 230.809 -51.8 230.809C-53.7782 230.809 -59.2182 239.719 -61.6909 244.174L-79 238.363" stroke="#557CEB" stroke-width="2" stroke-linejoin="round"/>
    </g>
    <g clip-path="url(#clip1_1077_17503)" filter="url(#filter1_i_1077_17503)">
        <rect width="1920" height="272" transform="matrix(-1 0 0 1 3840 0)" fill="#1450C8"/>
        <path opacity="0.5" d="M1743 37.8789L1755.36 35.5545L1765.25 47.7579L1777.62 30.3245L1789.98 28V72.1646L1807.29 79.138L1822.13 76.8136L1834.49 79.138L1851.8 75.0702L1861.69 94.247L1879 91.9225L1898.78 133.182L1911.15 84.368L1925.98 107.031L1938.35 97.1525L1953.18 43.6901L1958.13 44.8523C1961.42 42.1404 1968.51 36.9492 1970.49 37.8789C1972.47 38.8087 1977.91 49.8886 1980.38 55.3123L1987.8 28L2000.16 43.6901C2001.81 39.2349 2006.1 30.3245 2010.05 30.3245C2014.01 30.3245 2021.59 40.0097 2024.89 44.8523H2032.31L2059.51 108.775L2079.29 107.031L2086.71 120.978L2096.6 118.654L2108.96 128.533L2113.91 101.22L2131.22 147.709L2141.11 149.453L2151 131.438L2168.31 128.533L2195.51 89.0169L2210.35 95.9903V79.138L2225.18 84.368L2242.49 76.8136L2252.38 89.0169L2262.27 84.368L2274.64 123.303L2287 120.978L2306.78 136.087L2321.62 108.775L2338.93 133.182L2351.29 131.438L2376.02 141.898L2395.8 125.627L2413.11 133.182L2427.95 125.627L2440.31 137.831L2455.15 118.654L2462.56 152.939L2494.71 125.627L2514.49 136.087L2534.27 125.627L2551.58 136.087L2561.47 82.0436L2578.78 89.0169L2588.67 82.0436L2608.45 128.533L2628.24 123.303L2638.13 131.438L2655.44 55.3123L2667.8 128.533L2680.16 118.654L2692.53 128.533L2714.78 115.748L2724.67 120.978L2741.98 115.748L2749.4 131.438L2759.29 125.627L2771.65 147.709L2781.55 131.438L2798.85 151.196L2818.64 115.748L2840.89 120.978L2853.25 115.748L2858.2 120.978L2870.56 118.654L2882.93 141.898L2897.76 138.993L2910.13 141.898L2934.85 118.654L2949.69 125.627L2979.36 118.654L2989.25 125.627L3011.51 116.91L3021.4 125.627L3046.13 118.654L3053.55 123.303L3063.44 118.654L3068.38 179.09L3075.8 172.697L3080.75 179.09L3095.58 176.765L3105.47 184.32L3120.31 174.441L3132.67 186.063L3142.56 131.438L3149.98 138.993L3162.35 115.748L3172.24 120.978L3179.65 95.9903L3194.49 101.22L3206.85 63.4479L3226.64 84.368L3241.47 80.8814L3248.89 120.978L3263.73 110.518L3281.04 128.533L3290.93 116.91C3294.22 120.785 3301.31 128.533 3303.29 128.533C3305.27 128.533 3314.01 125.046 3318.13 123.303L3328.02 133.182L3345.33 128.533L3352.75 140.155L3379.95 112.261L3392.31 123.303L3409.62 118.654L3417.04 125.627L3431.87 123.303L3441.76 152.939L3451.65 147.709L3459.07 149.453L3468.96 128.533L3476.38 131.438L3493.69 120.978L3503.58 126.789L3515.95 114.005L3530.78 118.654L3545.62 110.518L3562.93 118.654L3567.87 112.261L3575.29 120.978L3592.6 118.654L3600.02 125.627L3622.27 120.978L3629.69 128.533L3642.05 123.303L3656.89 129.695L3669.25 108.775L3681.62 145.385L3689.04 125.627L3698.93 129.695L3708.82 108.775L3723.65 118.654L3738.49 245.918L3748.38 223.254L3758.27 227.322L3765.69 201.753L3780.53 227.322L3795.36 212.213L3805.25 227.322L3817.62 222.092C3819.27 226.741 3823.55 235.806 3827.51 234.877C3831.47 233.947 3837.4 229.453 3839.87 227.322L3847.29 259.283L3852.24 255.797L3864.18 267.59H3864.68L3872.02 230.809L3881.91 240.107C3884.38 237.007 3889.82 230.809 3891.8 230.809C3893.78 230.809 3899.22 239.719 3901.69 244.174L3919 238.363V267.59H3864.68L3864.6 268L3864.18 267.59H1743V37.8789Z" fill="url(#paint1_linear_1077_17503)"/>
        <path d="M1743 37.8789L1755.36 35.5545L1765.25 47.7579L1777.62 30.3245L1789.98 28V72.1646L1807.29 79.138L1822.13 76.8136L1834.49 79.138L1851.8 75.0702L1861.69 94.247L1879 91.9225L1898.78 133.182L1911.15 84.368L1925.98 107.031L1938.35 97.1525L1953.18 43.6901L1958.13 44.8523C1961.42 42.1404 1968.51 36.9492 1970.49 37.8789C1972.47 38.8087 1977.91 49.8886 1980.38 55.3123L1987.8 28L2000.16 43.6901C2001.81 39.2349 2006.1 30.3245 2010.05 30.3245C2014.01 30.3245 2021.59 40.0097 2024.89 44.8523H2032.31L2059.51 108.775L2079.29 107.031L2086.71 120.978L2096.6 118.654L2108.96 128.533L2113.91 101.22L2131.22 147.709L2141.11 149.453L2151 131.438L2168.31 128.533L2195.51 89.017L2210.35 95.9903V79.138L2225.18 84.368L2242.49 76.8136L2252.38 89.017L2262.27 84.368L2274.64 123.303L2287 120.978L2306.78 136.087L2321.62 108.775L2338.93 133.182L2351.29 131.438L2376.02 141.898L2395.8 125.627L2413.11 133.182L2427.95 125.627L2440.31 137.831L2455.15 118.654L2462.56 152.939L2494.71 125.627L2514.49 136.087L2534.27 125.627L2551.58 136.087L2561.47 82.0436L2578.78 89.017L2588.67 82.0436L2608.45 128.533L2628.24 123.303L2638.13 131.438L2655.44 55.3123L2667.8 128.533L2680.16 118.654L2692.53 128.533L2714.78 115.748L2724.67 120.978L2741.98 115.748L2749.4 131.438L2759.29 125.627L2771.65 147.709L2781.55 131.438L2798.85 151.196L2818.64 115.748L2840.89 120.978L2853.25 115.748L2858.2 120.978L2870.56 118.654L2882.93 141.898L2897.76 138.993L2910.13 141.898L2934.85 118.654L2949.69 125.627L2979.36 118.654L2989.25 125.627L3011.51 116.91L3021.4 125.627L3046.13 118.654L3053.55 123.303L3063.44 118.654L3068.38 179.09L3075.8 172.697L3080.75 179.09L3095.58 176.765L3105.47 184.32L3120.31 174.441L3132.67 186.063L3142.56 131.438L3149.98 138.993L3162.35 115.748L3172.24 120.978L3179.65 95.9903L3194.49 101.22L3206.85 63.4479L3226.64 84.368L3241.47 80.8814L3248.89 120.978L3263.73 110.518L3281.04 128.533L3290.93 116.91C3294.22 120.785 3301.31 128.533 3303.29 128.533C3305.27 128.533 3314.01 125.046 3318.13 123.303L3328.02 133.182L3345.33 128.533L3352.75 140.155L3379.95 112.262L3392.31 123.303L3409.62 118.654L3417.04 125.627L3431.87 123.303L3441.76 152.939L3451.65 147.709L3459.07 149.453L3468.96 128.533L3476.38 131.438L3493.69 120.978L3503.58 126.789L3515.95 114.005L3530.78 118.654L3545.62 110.518L3562.93 118.654L3567.87 112.262L3575.29 120.978L3592.6 118.654L3600.02 125.627L3622.27 120.978L3629.69 128.533L3642.05 123.303L3656.89 129.695L3669.25 108.775L3681.62 145.385L3689.04 125.627L3698.93 129.695L3708.82 108.775L3723.65 118.654L3738.49 245.918L3748.38 223.254L3758.27 227.322L3765.69 201.753L3780.53 227.322L3795.36 212.213L3805.25 227.322L3817.62 222.092C3819.27 226.741 3823.55 235.806 3827.51 234.877C3831.47 233.947 3837.4 229.453 3839.87 227.322L3847.29 259.283L3852.24 255.797L3864.6 268L3872.02 230.809L3881.91 240.107C3884.38 237.007 3889.82 230.809 3891.8 230.809C3893.78 230.809 3899.22 239.719 3901.69 244.174L3919 238.363" stroke="#557CEB" stroke-width="2" stroke-linejoin="round"/>
    </g>
    <defs>
        <filter id="filter0_i_1077_17503" x="0" y="0" width="1920" height="272" filterUnits="userSpaceOnUse" color-interpolation-filters="sRGB">
            <feFlood flood-opacity="0" result="BackgroundImageFix"/>
            <feBlend mode="normal" in="SourceGraphic" in2="BackgroundImageFix" result="shape"/>
            <feColorMatrix in="SourceAlpha" type="matrix" values="0 0 0 0 0 0 0 0 0 0 0 0 0 0 0 0 0 0 127 0" result="hardAlpha"/>
            <feOffset dy="1"/>
            <feComposite in2="hardAlpha" operator="arithmetic" k2="-1" k3="1"/>
            <feColorMatrix type="matrix" values="0 0 0 0 0.168627 0 0 0 0 0.243137 0 0 0 0 0.4 0 0 0 1 0"/>
            <feBlend mode="normal" in2="shape" result="effect1_innerShadow_1077_17503"/>
        </filter>
        <filter id="filter1_i_1077_17503" x="1920" y="0" width="1920" height="272" filterUnits="userSpaceOnUse" color-interpolation-filters="sRGB">
            <feFlood flood-opacity="0" result="BackgroundImageFix"/>
            <feBlend mode="normal" in="SourceGraphic" in2="BackgroundImageFix" result="shape"/>
            <feColorMatrix in="SourceAlpha" type="matrix" values="0 0 0 0 0 0 0 0 0 0 0 0 0 0 0 0 0 0 127 0" result="hardAlpha"/>
            <feOffset dy="1"/>
            <feComposite in2="hardAlpha" operator="arithmetic" k2="-1" k3="1"/>
            <feColorMatrix type="matrix" values="0 0 0 0 0.168627 0 0 0 0 0.243137 0 0 0 0 0.4 0 0 0 1 0"/>
            <feBlend mode="normal" in2="shape" result="effect1_innerShadow_1077_17503"/>
        </filter>
        <linearGradient id="paint0_linear_1077_17503" x1="1009" y1="28" x2="1009" y2="268" gradientUnits="userSpaceOnUse">
            <stop stop-color="white" stop-opacity="0.29"/>
            <stop offset="1" stop-color="#1459F5" stop-opacity="0"/>
        </linearGradient>
        <linearGradient id="paint1_linear_1077_17503" x1="2831" y1="28" x2="2831" y2="268" gradientUnits="userSpaceOnUse">
            <stop stop-color="white" stop-opacity="0.29"/>
            <stop offset="1" stop-color="#1459F5" stop-opacity="0"/>
        </linearGradient>
        <clipPath id="clip0_1077_17503">
            <rect width="1920" height="272" fill="white"/>
        </clipPath>
        <clipPath id="clip1_1077_17503">
            <rect width="1920" height="272" fill="white" transform="matrix(-1 0 0 1 3840 0)"/>
        </clipPath>
    </defs>
</svg>
