<svg fill="none" height="40" viewBox="0 0 135 40" width="135" xmlns="http://www.w3.org/2000/svg"><rect fill="#000" height="40" rx="6" width="135"/><path d="m46.9609 15v-6.39804h2.0317c.6255 0 1.1801.123 1.6605.369.4815.246.8528.596 1.1138 1.05004.2621.454.396.976.3993 1.564v.41c0 .603-.1316 1.132-.3948 1.586-.2469.4414-.6383.8061-1.1228 1.046-.4837.243-1.0496.367-1.6954.373zm.9483-5.70404v5.01404h.999c.7313 0 1.3005-.202 1.7055-.606.4084-.405.6132-.98.6132-1.727v-.374c0-.726-.1924-1.29-.5783-1.69204-.3825-.404-.9259-.61-1.6312-.615zm5.1075 3.28304c0-.466.1024-.885.3072-1.257.207-.372.495-.66.8595-.862.3795-.2046.8162-.3096 1.26-.303.729 0 1.3173.224 1.7662.673.4511.448.6773 1.044.6773 1.788v.057c0 .463-.1013.88-.3015 1.248-.198.367-.4838.652-.855.857-.3835.2088-.8262.3156-1.2758.308-.7256 0-1.314-.224-1.7662-.672-.4478-.449-.6717-1.042-.6717-1.78zm.9203.096c0 .528.1361.951.4095 1.27.2767.32.6469.48 1.1081.48.4646 0 .8325-.162 1.107-.484.2734-.325.4106-.78.4106-1.362 0-.522-.1406-.944-.4207-1.266-.1257-.1555-.2923-.2813-.4853-.3663-.1929-.0851-.4064-.1269-.6217-.1217-.4511 0-.8156.16-1.0924.48-.2767.319-.4162.776-.4162 1.37zm9.63 1.204 1.0282-3.634h.9147l-1.557 4.755h-.7425l-1.2994-3.604-1.2656 3.604h-.7425l-1.5514-4.755h.9101l1.053 3.56 1.2454-3.56h.7369l1.2712 3.634zm3.5404-3.634.0292.598c.1867-.2191.4294-.3956.7079-.5148.2786-.1193.585-.178.8941-.1712 1.1306 0 1.701.567 1.71 1.7v3.143h-.9135v-3.146c-.0034-.343-.0922-.597-.2677-.76-.171-.165-.4388-.247-.8055-.247-.297 0-.5569.07-.7808.211-.225.14-.3994.325-.5242.554v3.388h-.9147v-4.755zm5.5113 4.755h-.9146v-6.75004h.9146zm1.0238-2.421c0-.466.1012-.885.306-1.257.2081-.372.495-.66.8606-.862.3795-.2045.8163-.3096 1.26-.303.729 0 1.3174.224 1.7663.673.45.448.6772 1.044.6772 1.788v.057c0 .463-.1012.88-.3026 1.248-.1969.367-.4826.652-.855.857-.3835.2088-.8262.3156-1.2758.308-.7245 0-1.3128-.224-1.7651-.672-.4477-.449-.6716-1.042-.6716-1.78zm.9191.096c0 .528.1373.951.4106 1.27.2768.32.6458.48 1.107.48.4647 0 .8348-.162 1.1082-.484.2733-.325.4106-.78.4106-1.362 0-.522-.1406-.944-.4208-1.266-.1257-.1555-.2923-.2813-.4852-.3663-.193-.0851-.4064-.1269-.6218-.1217-.4522 0-.8156.16-1.0935.48-.2767.319-.4151.776-.4151 1.37zm8.1979 2.325c-.0518-.094-.0945-.26-.1283-.501-.4252.393-.9326.589-1.5221.589-.5276 0-.9607-.132-1.3005-.396-.1625-.125-.292-.2803-.3791-.4549-.0872-.1746-.1298-.3642-.1249-.5551 0-.495.2104-.88.6323-1.152.4252-.275 1.0215-.413 1.7898-.413h.8899v-.373c0-.284-.0956-.51-.2869-.677-.1912-.17-.4725-.255-.8448-.255-.3263 0-.6008.073-.8213.22-.2205.146-.3307.323-.3307.531h-.9203c0-.237.0945-.465.2813-.685.1912-.223.45-.399.7717-.527.3263-.13.684-.194 1.0733-.194.6165 0 1.0991.138 1.449.413.3487.273.5298.65.5433 1.13v2.188c0 .437.063.784.1879 1.042v.07zm-1.5176-.62c.2868 0 .5591-.066.8156-.197.2576-.132.4444-.304.5591-.514v-.976h-.7166c-1.1205 0-1.6808.291-1.6808.874 0 .255.0957.454.2869.598.1913.144.4365.215.7358.215zm3.2985-1.797c0-.73.1946-1.315.5827-1.758.1755-.2124.4059-.384.6719-.5003s.5596-.1738.8559-.1677c.6266 0 1.1227.19 1.4883.572v-2.47904h.9147v6.75004h-.8404l-.045-.51c-.3656.399-.8753.598-1.5278.598-.6187 0-1.125-.226-1.5176-.677-.3881-.451-.5827-1.04-.5827-1.766zm.9146.092c0 .54.1249.961.3757 1.266.2498.305.5963.457 1.0384.457.5794 0 1.0035-.232 1.2701-.694v-2.184c-.2733-.449-.6941-.673-1.26-.673-.45 0-.7987.154-1.0485.462-.2508.307-.3757.763-.3757 1.366zm7.5791 2.325v-4.127h-.846v-.628h.846v-.48804c0-.51.153-.903.4601-1.182.306-.278.7392-.417 1.2994-.417.2115 0 .4208.025.6289.074l-.0495.66c-.1632-.02721-.329-.0406-.495-.04-.297 0-.5254.078-.6863.233-.162.152-.243.372-.243.66v.50004h1.1419v.629h-1.1419v4.126zm2.6258-2.421c0-.466.1012-.885.306-1.257.2081-.372.495-.66.8606-.862.3795-.2046.8163-.3096 1.26-.303.729 0 1.3162.224 1.7662.673.4503.448.6763 1.044.6763 1.788v.057c0 .463-.101.88-.302 1.248-.198.367-.4834.652-.8546.857-.3835.2088-.8262.3156-1.2758.308-.7256 0-1.3129-.224-1.7651-.672-.4478-.449-.6716-1.042-.6716-1.78zm.9191.096c0 .528.1361.951.4106 1.27.2768.32.6458.48 1.107.48.4646 0 .8336-.162 1.107-.484.2745-.325.4106-.78.4106-1.362 0-.522-.1395-.944-.4196-1.266-.1258-.1557-.2926-.2815-.4858-.3666-.1931-.085-.4068-.1267-.6223-.1214-.4511 0-.8156.16-1.0913.48-.2778.319-.4162.776-.4162 1.37zm7.481-1.7c-.149-.0213-.299-.0317-.45-.031-.601 0-1.008.227-1.222.681v3.375h-.914v-4.755h.889l.015.55c.3-.425.725-.638 1.276-.638.139-.0064.277.0148.405.062v.756zm-53.6904 17.439.2475 1.5.36-1.352 2.5313-7.937h1.4231l2.4694 7.938.3521 1.375.2722-1.532 1.9868-7.781h1.6965l-3.1028 11.375h-1.5378l-2.637-8.29-.2025-.866-.2025.867-2.7338 8.289h-1.5367l-3.0938-11.375h1.6875l2.0205 7.79zm14.7308 3.586h-1.6257v-8.453h1.6257zm-1.7573-10.695c0-.235.0788-.433.2363-.594.1642-.162.405-.242.7211-.242.3172 0 .5569.08.72.242.1654.161.2475.36.2475.594s-.0821.43-.2475.586c-.1631.156-.4028.234-.72.234-.3161 0-.5569-.078-.72-.234-.1604-.1613-.2453-.3709-.2374-.586zm5.9063 2.242.0528 1.062c.7257-.812 1.6763-1.218 2.8463-1.218 2.0104 0 3.024 1.007 3.042 3.023v5.586h-1.6268v-5.594c-.0067-.61-.1642-1.06-.4747-1.351-.3049-.292-.783-.438-1.4333-.438-.5265 0-.99.125-1.3882.375-.3983.25-.7088.578-.9315.985v6.023h-1.6268v-8.453h1.539zm7.9987 4.156c0-1.297.3443-2.338 1.035-3.125.693-.791 1.5975-1.187 2.7169-1.187 1.1137 0 1.9946.338 2.646 1.015v-4.406h1.6256v12h-1.494l-.0787-.906c-.6514.708-1.5559 1.062-2.7169 1.062-1.1014 0-2.0003-.4-2.6978-1.203-.6918-.802-1.0372-1.849-1.0372-3.14v-.11zm1.6245.164c0 .959.2228 1.709.6683 2.25.4455.542 1.0608.813 1.845.813 1.0316 0 1.7853-.412 2.2601-1.235v-3.883c-.4871-.796-1.2341-1.195-2.2421-1.195-.7965 0-1.4175.274-1.863.82-.4455.547-.6683 1.357-.6683 2.43zm8.4994-.172c0-.828.1822-1.573.5445-2.234.3701-.662.8797-1.172 1.53-1.531.6559-.36 1.4029-.54 2.241-.54 1.2949 0 2.34.4 3.1387 1.196.8022.797 1.2038 1.857 1.2038 3.18v.101c0 .823-.18 1.563-.5366 2.219-.3294.6284-.858 1.1578-1.521 1.523-.6559.365-1.4119.547-2.2669.547-1.2893 0-2.3355-.398-3.1388-1.195-.7965-.797-1.1947-1.852-1.1947-3.164zm1.6346.172c0 .938.243 1.69.7301 2.258.4917.568 1.1475.852 1.9688.852.8257 0 1.4816-.287 1.9687-.86.486-.578.729-1.385.729-2.422 0-.927-.2486-1.677-.747-2.25-.4927-.578-1.1475-.867-1.9687-.867-.8021 0-1.4513.284-1.9429.852-.4916.567-.738 1.38-.738 2.437zm17.4824 2.14 1.827-6.46h1.627l-2.769 8.453h-1.318l-2.312-6.406-2.25 6.406h-1.3186l-2.7597-8.453h1.6178l1.8715 6.328 2.214-6.328h1.31l2.259 6.46zm10.652-.25c0-.39-.167-.692-.501-.905-.329-.22-.906-.407-1.731-.563-.822-.156-1.474-.344-1.961-.562-.481-.22-.837-.48-1.072-.782-.229-.302-.342-.661-.342-1.078 0-.693.327-1.279.984-1.758.661-.479 1.505-.718 2.531-.718 1.078 0 1.951.247 2.619.742.674.495 1.01 1.127 1.01 1.898h-1.634c0-.396-.19-.737-.572-1.023-.374-.287-.849-.43-1.423-.43-.592 0-1.055.115-1.389.344s-.501.529-.501.898c0 .35.155.612.466.79.31.177.87.346 1.678.507.815.162 1.474.354 1.978.578s.877.495 1.116.813c.247.312.369.695.369 1.148 0 .756-.34 1.362-1.019 1.82-.68.454-1.562.68-2.646.68-.762 0-1.436-.12-2.021-.36-.553-.2158-1.03-.5615-1.38-1-.32-.4107-.492-.8984-.492-1.398h1.626c.029.485.246.87.65 1.157.411.28.95.422 1.617.422.615 0 1.108-.11 1.477-.329.375-.224.563-.52.563-.89z" fill="#fff"/><path d="m12.375 11.55 11.4941-1.39.0045 9.854-11.4885.058-.0101-8.521zm11.4885 9.6.009 9.863-11.4885-1.404v-8.526l11.4795.066zm1.3928-11.174 15.2403-1.976v11.889l-15.2403.107v-10.019zm15.2437 11.266-.0034 11.835-15.2403-1.912-.0214-9.945z" fill="#00adef"/></svg>